<?xml version="1.0" standalone="no"?><!DOCTYPE svg PUBLIC "-//W3C//DTD SVG 1.1//EN" "http://www.w3.org/Graphics/SVG/1.1/DTD/svg11.dtd"><svg t="1642145165412" class="icon" viewBox="0 0 1024 1024" version="1.1" xmlns="http://www.w3.org/2000/svg" p-id="6634" xmlns:xlink="http://www.w3.org/1999/xlink" width="200" height="200"><defs><style type="text/css"></style></defs><path d="M723.264 335.168C685.056 290.816 611.904 221.824 512 201.856c-160.512-32.064-245.568 0-448 137.856C64 339.712 178.112 64 512 64c173.76 0 271.296 68.224 344.512 137.984L960 98.496l0 379.072L580.928 477.568 723.264 335.168zM300.736 688.832c38.208 44.352 111.36 113.344 211.264 133.312 160.512 32.128 245.568 0 448-137.792 0 0-114.112 275.712-448 275.712-173.76 0-271.296-68.224-344.512-137.92L64 925.568 64 546.496l379.072 0L300.736 688.832z" p-id="6635" fill="#1afa29"></path></svg>